# xmcd CD database file
#
# Track frame offsets:
#	150
#	15361
#	29731
#	45463
#	60818
#	75691
#	92670
#	106683
#	121604
#	136037
#	149231
#
# Disc length: 2204 seconds
#
# Revision: 0
# Processed by: cddbd v1.5PL3 Copyright (c) Steve Scherf et al.
# Submitted via: CDex 1.51
#
DISCID=7f089a0b
DTITLE=Mister gato - La pandilla del ritmo
DYEAR=1997
DGENRE=Salsa
TTITLE0=Soltero
TTITLE1=Chiquilina
TTITLE2=Reloco
TTITLE3=Soy vago
TTITLE4=Caramelito
TTITLE5=Soy pobre, pero feliz
TTITLE6=Chica preciosa
TTITLE7=Mi flaquita
TTITLE8=Mate y terere
TTITLE9=Me rompes los huevos
TTITLE10=No quiero sufrir
EXTD=YEAR: 1997
EXTT0=
EXTT1=
EXTT2=
EXTT3=
EXTT4=
EXTT5=
EXTT6=
EXTT7=
EXTT8=
EXTT9=
EXTT10=
PLAYORDER=
